<svg width="744" height="44" viewBox="0 0 744 44" fill="none" xmlns="http://www.w3.org/2000/svg">
<path d="M728.226 40.335C725.626 40.335 723.221 39.8367 721.011 38.84C718.801 37.8 716.872 36.4133 715.226 34.68C713.622 32.9467 712.366 30.9967 711.456 28.83C710.589 26.6633 710.156 24.4317 710.156 22.135C710.156 19.7517 710.589 17.4983 711.456 15.375C712.366 13.2083 713.622 11.3017 715.226 9.65499C716.829 7.96499 718.714 6.64333 720.881 5.68999C723.091 4.73666 725.496 4.25999 728.096 4.25999C731.866 4.25999 734.942 4.975 737.326 6.40499C739.752 7.83499 741.594 9.69833 742.851 11.995L739.666 14.14C738.496 11.9733 736.871 10.3917 734.791 9.39499C732.754 8.39833 730.479 7.89999 727.966 7.89999C725.842 7.89999 723.936 8.31166 722.246 9.13499C720.556 9.91499 719.104 10.9983 717.891 12.385C716.721 13.7283 715.811 15.2667 715.161 17C714.554 18.69 714.251 20.445 714.251 22.265C714.251 24.215 714.597 26.0567 715.291 27.79C716.027 29.5233 717.046 31.0617 718.346 32.405C719.646 33.705 721.162 34.745 722.896 35.525C724.629 36.2617 726.492 36.63 728.486 36.63C730.782 36.63 732.971 36.11 735.051 35.07C737.174 34.03 739.167 32.405 741.031 30.195V34.485C739.211 36.435 737.217 37.9083 735.051 38.905C732.927 39.8583 730.652 40.335 728.226 40.335ZM740.446 25.58H731.931V22.46H743.956V40.075H740.446V25.58Z" fill="black"/>
<path d="M671.354 12.06V40.075H667.324V4.455H670.444L695.794 32.99V4.52H699.889V40.075H696.379L671.354 12.06Z" fill="black"/>
<path d="M650.394 40.075V4.51999H654.424V40.075H650.394Z" fill="black"/>
<path d="M613.151 40.075V4.455H629.206C631.459 4.455 633.474 5.01834 635.251 6.145C637.027 7.27167 638.392 8.70167 639.346 10.435C640.342 12.125 640.841 13.9017 640.841 15.765C640.841 17.715 640.364 19.5567 639.411 21.29C638.501 23.0233 637.201 24.4317 635.511 25.515C633.864 26.5983 631.892 27.14 629.596 27.14H617.181V40.075H613.151ZM617.181 23.5H629.401C630.917 23.5 632.217 23.1533 633.301 22.46C634.384 21.7233 635.229 20.77 635.836 19.6C636.442 18.43 636.746 17.1733 636.746 15.83C636.746 14.3567 636.399 13.0567 635.706 11.93C635.012 10.76 634.081 9.82834 632.911 9.135C631.741 8.44167 630.441 8.095 629.011 8.095H617.181V23.5Z" fill="black"/>
<path d="M602.864 36.435V40.075H576.669V4.455H602.344V8.095H580.699V20.25H599.614V23.63H580.699V36.435H602.864Z" fill="black"/>
<path d="M566.383 36.435V40.075H540.188V4.455H565.863V8.095H544.218V20.25H563.133V23.63H544.218V36.435H566.383Z" fill="black"/>
<path d="M501.739 40.075V4.52H505.769V24.605L526.829 4.455H531.379L515.519 20.12L532.159 40.075H527.349L512.789 22.785L505.769 29.155V40.075H501.739Z" fill="black"/>
<path d="M463.29 40.075V4.52H467.32V24.605L488.38 4.455H492.93L477.07 20.12L493.71 40.075H488.9L474.34 22.785L467.32 29.155V40.075H463.29Z" fill="black"/>
<path d="M436.093 40.335C433.363 40.335 430.871 39.8367 428.618 38.84C426.408 37.8 424.48 36.435 422.833 34.745C421.23 33.0117 419.995 31.0833 419.128 28.96C418.261 26.7933 417.828 24.5617 417.828 22.265C417.828 19.8817 418.283 17.6283 419.193 15.505C420.103 13.3383 421.381 11.41 423.028 9.72C424.675 8.02999 426.603 6.70833 428.813 5.755C431.066 4.75833 433.515 4.25999 436.158 4.25999C438.845 4.25999 441.293 4.77999 443.503 5.81999C445.756 6.85999 447.685 8.24666 449.288 9.97999C450.891 11.7133 452.126 13.6633 452.993 15.83C453.86 17.9533 454.293 20.12 454.293 22.33C454.293 24.7133 453.838 26.9883 452.928 29.155C452.018 31.3217 450.74 33.25 449.093 34.94C447.49 36.5867 445.561 37.9083 443.308 38.905C441.098 39.8583 438.693 40.335 436.093 40.335ZM421.923 22.265C421.923 24.1283 422.248 25.9267 422.898 27.66C423.591 29.35 424.566 30.8883 425.823 32.275C427.08 33.6183 428.575 34.68 430.308 35.46C432.085 36.24 434.013 36.63 436.093 36.63C438.26 36.63 440.21 36.2183 441.943 35.395C443.676 34.5717 445.15 33.4667 446.363 32.08C447.576 30.6933 448.508 29.155 449.158 27.465C449.851 25.775 450.198 24.0417 450.198 22.265C450.198 20.4017 449.851 18.625 449.158 16.935C448.465 15.2017 447.49 13.6633 446.233 12.32C444.976 10.9767 443.481 9.91499 441.748 9.13499C440.015 8.35499 438.13 7.96499 436.093 7.96499C433.926 7.96499 431.955 8.37666 430.178 9.19999C428.445 9.97999 426.95 11.0633 425.693 12.45C424.48 13.8367 423.548 15.375 422.898 17.065C422.248 18.755 421.923 20.4883 421.923 22.265Z" fill="black"/>
<path d="M393.231 40.335C390.501 40.335 388.01 39.8367 385.756 38.84C383.546 37.8 381.618 36.435 379.971 34.745C378.368 33.0117 377.133 31.0833 376.266 28.96C375.4 26.7933 374.966 24.5617 374.966 22.265C374.966 19.8817 375.421 17.6283 376.331 15.505C377.241 13.3383 378.52 11.41 380.166 9.72C381.813 8.02999 383.741 6.70833 385.951 5.755C388.205 4.75833 390.653 4.25999 393.296 4.25999C395.983 4.25999 398.431 4.77999 400.641 5.81999C402.895 6.85999 404.823 8.24666 406.426 9.97999C408.03 11.7133 409.265 13.6633 410.131 15.83C410.998 17.9533 411.431 20.12 411.431 22.33C411.431 24.7133 410.976 26.9883 410.066 29.155C409.156 31.3217 407.878 33.25 406.231 34.94C404.628 36.5867 402.7 37.9083 400.446 38.905C398.236 39.8583 395.831 40.335 393.231 40.335ZM379.061 22.265C379.061 24.1283 379.386 25.9267 380.036 27.66C380.73 29.35 381.705 30.8883 382.961 32.275C384.218 33.6183 385.713 34.68 387.446 35.46C389.223 36.24 391.151 36.63 393.231 36.63C395.398 36.63 397.348 36.2183 399.081 35.395C400.815 34.5717 402.288 33.4667 403.501 32.08C404.715 30.6933 405.646 29.155 406.296 27.465C406.99 25.775 407.336 24.0417 407.336 22.265C407.336 20.4017 406.99 18.625 406.296 16.935C405.603 15.2017 404.628 13.6633 403.371 12.32C402.115 10.9767 400.62 9.91499 398.886 9.13499C397.153 8.35499 395.268 7.96499 393.231 7.96499C391.065 7.96499 389.093 8.37666 387.316 9.19999C385.583 9.97999 384.088 11.0633 382.831 12.45C381.618 13.8367 380.686 15.375 380.036 17.065C379.386 18.755 379.061 20.4883 379.061 22.265Z" fill="black"/>
<path d="M367.81 30.91C367.81 32.6867 367.311 34.2683 366.315 35.655C365.361 37.0417 364.04 38.125 362.35 38.905C360.703 39.685 358.861 40.075 356.825 40.075H338.625V4.455H357.41C359.186 4.455 360.725 4.91 362.025 5.82C363.368 6.68667 364.386 7.835 365.08 9.265C365.773 10.6517 366.12 12.0817 366.12 13.555C366.12 15.3317 365.643 16.9783 364.69 18.495C363.736 19.9683 362.393 21.0733 360.66 21.81C362.87 22.4167 364.603 23.5217 365.86 25.125C367.16 26.7283 367.81 28.6567 367.81 30.91ZM363.715 30.195C363.715 29.025 363.433 27.9633 362.87 27.01C362.306 26.0567 361.526 25.2767 360.53 24.67C359.576 24.0633 358.471 23.76 357.215 23.76H342.655V36.565H356.825C358.125 36.565 359.295 36.2617 360.335 35.655C361.375 35.0483 362.198 34.2683 362.805 33.315C363.411 32.3183 363.715 31.2783 363.715 30.195ZM342.655 8.095V20.445H355.72C356.976 20.445 358.081 20.1633 359.035 19.6C359.988 19.0367 360.746 18.2783 361.31 17.325C361.873 16.3717 362.155 15.3533 362.155 14.27C362.155 13.0567 361.895 11.995 361.375 11.085C360.855 10.175 360.14 9.46 359.23 8.94C358.32 8.37667 357.258 8.095 356.045 8.095H342.655Z" fill="black"/>
<path d="M279.675 40.075V4H297.03C299.457 4 301.58 4.60667 303.4 5.82C305.264 6.99 306.715 8.485 307.755 10.305C308.839 12.0817 309.38 13.945 309.38 15.895C309.38 17.455 309.055 18.95 308.405 20.38C307.799 21.7667 306.91 23.0017 305.74 24.085C304.614 25.125 303.27 25.9267 301.71 26.49L311.2 40.075H303.79L295.145 27.79H286.11V40.075H279.675ZM286.11 22.135H296.9C298.07 22.135 299.089 21.8533 299.955 21.29C300.865 20.7267 301.559 19.9683 302.035 19.015C302.555 18.0617 302.815 17.0217 302.815 15.895C302.815 14.6817 302.534 13.62 301.97 12.71C301.407 11.8 300.649 11.085 299.695 10.565C298.785 10.0017 297.745 9.72 296.575 9.72H286.11V22.135Z" fill="black"/>
<path d="M270.496 34.355V40.075H243.131V4H269.976V9.72H249.566V19.08H267.246V24.345H249.566V34.355H270.496Z" fill="black"/>
<path d="M235.138 9.72H222.007V40.075H215.507V9.72H202.312V4H235.138V9.72Z" fill="black"/>
<path d="M197.895 9.72H184.765V40.075H178.265V9.72H165.07V4H197.895V9.72Z" fill="black"/>
<path d="M159.465 34.355V40.075H132.1V4H158.945V9.72H138.535V19.08H156.215V24.345H138.535V34.355H159.465Z" fill="black"/>
<path d="M122.88 30.78C122.88 32.73 122.317 34.3983 121.19 35.785C120.107 37.1717 118.633 38.2333 116.77 38.97C114.907 39.7067 112.87 40.075 110.66 40.075H91.8101V4H112.22C114.04 4 115.622 4.455 116.965 5.365C118.308 6.275 119.327 7.445 120.02 8.875C120.757 10.2617 121.125 11.7133 121.125 13.23C121.125 14.9633 120.648 16.61 119.695 18.17C118.742 19.6867 117.355 20.8133 115.535 21.55C117.788 22.1567 119.565 23.2617 120.865 24.865C122.208 26.4683 122.88 28.44 122.88 30.78ZM116.315 29.545C116.315 28.5917 116.077 27.7467 115.6 27.01C115.123 26.23 114.495 25.6017 113.715 25.125C112.935 24.6483 112.047 24.41 111.05 24.41H98.2451V34.55H110.66C111.7 34.55 112.632 34.3333 113.455 33.9C114.322 33.4233 115.015 32.8167 115.535 32.08C116.055 31.3 116.315 30.455 116.315 29.545ZM98.2451 9.655V19.275H109.49C110.487 19.275 111.375 19.08 112.155 18.69C112.935 18.3 113.563 17.7367 114.04 17C114.517 16.2633 114.755 15.4183 114.755 14.465C114.755 13.4683 114.538 12.6233 114.105 11.93C113.672 11.1933 113.087 10.63 112.35 10.24C111.613 9.85 110.768 9.655 109.815 9.655H98.2451Z" fill="black"/>
<path d="M0 3.9111H52.3111C53.1211 3.9111 53.7778 4.56775 53.7778 5.37777V5.37777C53.7778 6.18779 53.1211 6.84444 52.3111 6.84444H0V3.9111Z" fill="#224F6A"/>
<circle cx="29.0396" cy="5.37778" r="5.37778" fill="#224F6A"/>
<circle cx="13.982" cy="5.37778" r="5.37778" fill="#224F6A"/>
<circle cx="44.098" cy="5.37778" r="5.37778" fill="#224F6A"/>
<path d="M0 37.1555H52.3111C53.1211 37.1555 53.7778 37.8122 53.7778 38.6222V38.6222C53.7778 39.4322 53.1211 40.0889 52.3111 40.0889H0V37.1555Z" fill="#224F6A"/>
<circle cx="29.0396" cy="38.6222" r="5.37778" fill="#224F6A"/>
<circle cx="13.982" cy="38.6222" r="5.37778" fill="#224F6A"/>
<circle cx="44.098" cy="38.6222" r="5.37778" fill="#224F6A"/>
<path d="M9.77808 20.5334H62.0892C62.8992 20.5334 63.5558 21.19 63.5558 22V22C63.5558 22.8101 62.8992 23.4667 62.0892 23.4667H9.77808V20.5334Z" fill="#224F6A"/>
<circle cx="38.8177" cy="22" r="5.37778" fill="#224F6A"/>
<circle cx="23.7601" cy="22" r="5.37778" fill="#224F6A"/>
<circle cx="53.8756" cy="22" r="5.37778" fill="#224F6A"/>
</svg>
